#tb 0: 1/44100
#media_type 0: audio
#codec_id 0: ac3
#sample_rate 0: 44100
#channel_layout_name 0: 5.1(side)
0,       -256,       -256,     1536,     1114, 0x32fd276c
0,       1280,       1280,     1536,     1116, 0x1ac63ba7
0,       2816,       2816,     1536,     1114, 0xdde82dbc
0,       4352,       4352,     1536,     1114, 0x39313179
0,       5888,       5888,     1536,     1116, 0x166214e2
0,       7424,       7424,     1536,     1114, 0xfbcc27ad
0,       8960,       8960,     1536,     1114, 0xe7ed3321
0,      10496,      10496,     1536,     1114, 0xa1823473
